<svg width="800" height="800" viewBox="0 0 800 800" fill="none" xmlns="http://www.w3.org/2000/svg">
<path d="M600 700H200C144.767 700 100 655.233 100 600V200C100 144.767 144.767 100 200 100H600C655.233 100 700 144.767 700 200V600C700 655.233 655.233 700 600 700Z" fill="url(#paint0_linear)"/>
<path fill-rule="evenodd" clip-rule="evenodd" d="M444.19 284.26L250.776 477.674C243.137 485.341 237.764 494.984 235.296 505.527L224.085 553.477C220.803 567.563 233.437 580.168 247.494 576.857L295.357 565.559C305.842 563.09 315.455 557.746 323.093 550.108L516.566 356.635L444.19 284.26ZM458.332 270.118L530.708 342.493L569.699 303.502C581.055 292.175 581.055 273.791 569.699 262.435L538.391 231.126C527.064 219.77 508.68 219.77 497.324 231.126L458.332 270.118Z" fill="url(#paint1_linear)"/>
<defs>
<linearGradient id="paint0_linear" x1="636" y1="700" x2="142.5" y2="93" gradientUnits="userSpaceOnUse">
<stop stop-color="#159749"/>
<stop offset="1" stop-color="#B7FF5C"/>
</linearGradient>
<linearGradient id="paint1_linear" x1="378.235" y1="373.248" x2="439.902" y2="435.368" gradientUnits="userSpaceOnUse">
<stop stop-color="white"/>
<stop offset="0.364583" stop-color="white"/>
<stop offset="0.364683" stop-color="white" stop-opacity="0.85"/>
<stop offset="1" stop-color="white" stop-opacity="0.85"/>
</linearGradient>
</defs>
</svg>
