<svg 
 xmlns="http://www.w3.org/2000/svg"
 xmlns:xlink="http://www.w3.org/1999/xlink"
 width="422px" height="495px">
<path fill-rule="evenodd"  fill="rgb(255, 255, 255)"
 d="M392.532,286.672 C382.032,286.672 372.578,291.922 364.188,302.422 C339.688,333.922 318.157,356.328 299.610,369.625 C281.047,382.937 257.422,389.578 228.735,389.578 C188.828,389.578 160.485,373.484 143.688,341.281 C226.985,320.984 285.953,293.516 320.610,258.859 C355.250,224.203 372.578,182.734 372.578,134.422 C372.578,93.141 360.328,60.422 335.828,36.266 C311.328,12.109 278.782,0.031 238.188,0.031 C192.688,0.031 151.907,12.281 115.860,36.781 C79.797,61.281 51.625,94.359 31.328,136.016 C11.032,177.672 0.891,222.641 0.891,270.922 C0.891,339.531 19.438,393.953 56.532,434.203 C93.625,474.453 145.782,494.578 212.985,494.578 C257.078,494.578 295.063,486.187 326.907,469.375 C358.750,452.578 384.485,429.125 404.078,399.031 C415.985,380.844 421.938,359.141 421.938,333.922 C421.938,319.234 419.313,307.687 414.063,299.281 C408.813,290.875 401.625,286.672 392.532,286.672 L392.532,286.672 ZM220.328,102.922 C232.922,102.922 242.907,106.953 250.250,115.000 C257.594,123.062 261.282,133.734 261.282,147.031 C261.282,172.937 249.375,195.687 225.578,215.281 C201.782,234.875 169.235,249.578 127.938,259.375 L127.938,257.281 C127.938,214.594 136.860,178.187 154.703,148.078 C172.547,117.984 194.422,102.922 220.328,102.922 L220.328,102.922 Z"/>
</svg>