<svg xmlns="http://www.w3.org/2000/svg" viewBox="0 0 185.093 36.069">
  <g id="kuntarekry" transform="translate(0 -31.285)">
    <path id="Path_4" data-name="Path 4" fill="#ffffff" d="M18.46,150.765,8.813,139.746l8.707-8.45H12.714l-8.165,8.45H4.478V122.41H0v28.355H4.478V140.182h.071l8.6,10.582Z" transform="translate(0 -91.105)"/>
    <path id="Path_5" data-name="Path 5" fill="#ffffff" d="M94.765,177.309a15.507,15.507,0,0,0,3.468-.993V157.75H93.717v16.469a6.524,6.524,0,0,1-1.605.469,12.671,12.671,0,0,1-2.268.184,4.52,4.52,0,0,1-3.276-1.048,3.493,3.493,0,0,1-1.066-2.6V157.75H81V171a6.2,6.2,0,0,0,2.059,4.912q2.059,1.8,6.578,1.807a27.972,27.972,0,0,0,5.129-.416" transform="translate(-60.586 -117.539)"/>
    <path id="Path_6" data-name="Path 6" fill="#ffffff" d="M181.687,175.633h4.551V161.656a5.04,5.04,0,0,0-2.548-4.589A9.223,9.223,0,0,0,180.783,156a19.159,19.159,0,0,0-3.758-.338,26.378,26.378,0,0,0-4.693.4,19.2,19.2,0,0,0-3.722,1.008v18.569h4.516V158.871a8.486,8.486,0,0,1,1.626-.413,12.2,12.2,0,0,1,2.016-.161,9.4,9.4,0,0,1,1.86.179,4.894,4.894,0,0,1,1.573.6,3.17,3.17,0,0,1,1.084,1.066,3.024,3.024,0,0,1,.4,1.59Z" transform="translate(-126.117 -115.973)"/>
    <path id="Path_7" data-name="Path 7" fill="#ffffff" d="M258.85,161.19a4.93,4.93,0,0,0,.973-.27v-2.573c-.214.048-.421.088-.612.126a3.4,3.4,0,0,1-.615.053,2.8,2.8,0,0,1-2.167-.776,2.725,2.725,0,0,1-.721-1.923V143.945h4.118v-2.52h-4.118V135.89l-4.511,1.154v4.372H248.23v2.52H251.2v12.1a5.7,5.7,0,0,0,.343,1.93,4.656,4.656,0,0,0,1.066,1.7,5.2,5.2,0,0,0,1.893,1.2,9.157,9.157,0,0,0,4.352.323" transform="translate(-185.671 -101.188)"/>
    <path id="Path_8" data-name="Path 8" fill="#ffffff" d="M620.279,158.961l.97-2.951c-.24-.025-.562-.048-.97-.073s-.806-.035-1.19-.035a31.428,31.428,0,0,0-5.2.36,17.744,17.744,0,0,0-3.742,1.043v18.513h4.5V159.142a4.871,4.871,0,0,1,1.152-.34,11.1,11.1,0,0,1,1.459-.161,9.219,9.219,0,0,1,1.55.053,10.654,10.654,0,0,1,1.459.27" transform="translate(-456.38 -116.154)"/>
    <path id="Path_9" data-name="Path 9" fill="#ffffff" d="M676.928,157.72h-4.252l-4.5,13.037a17.575,17.575,0,0,0-.718,2.881h-.073a21.631,21.631,0,0,0-.685-2.881l-4.247-13.037h-4.9l7.674,19.406-3.747,7.745h4.9Z" transform="translate(-491.835 -117.516)"/>
    <path id="Path_10" data-name="Path 10" fill="#ffffff" d="M321.789,174.919V162.6a7.128,7.128,0,0,0-.633-3.16,5.468,5.468,0,0,0-1.764-2.077,7.493,7.493,0,0,0-2.636-1.154,14.112,14.112,0,0,0-3.276-.363,19.014,19.014,0,0,0-4.516.489,26.666,26.666,0,0,0-3.1.92l1.043,2.384a14.713,14.713,0,0,1,2.6-.776,14.913,14.913,0,0,1,3.143-.343,11.153,11.153,0,0,1,1.986.161,4.285,4.285,0,0,1,1.535.559,2.789,2.789,0,0,1,.993,1.066,3.512,3.512,0,0,1,.363,1.678v1.122q-2.671.217-5.04.633a16.87,16.87,0,0,0-4.133,1.217,7.629,7.629,0,0,0-2.818,2.114,5.018,5.018,0,0,0-1.046,3.251,5.125,5.125,0,0,0,2.22,4.408q2.22,1.593,6.918,1.588a25.322,25.322,0,0,0,4.713-.4,15.874,15.874,0,0,0,3.453-1.008m-4.264-1.588a6.667,6.667,0,0,1-1.512.471,10.29,10.29,0,0,1-2.016.179,7.034,7.034,0,0,1-3.78-.882,3.158,3.158,0,0,1-1.409-2.873,3.939,3.939,0,0,1,.633-2.311,4.7,4.7,0,0,1,1.764-1.482,10.356,10.356,0,0,1,2.772-.882q1.626-.31,3.576-.489Z" transform="translate(-227.751 -116.114)"/>
    <path id="Path_11" data-name="Path 11" fill="#ffffff" d="M402.824,159.011l.973-2.951c-.252-.025-.564-.048-.973-.073s-.8-.035-1.19-.035a31.38,31.38,0,0,0-5.187.36,17.812,17.812,0,0,0-3.748,1.043v18.516h4.5V159.19a4.871,4.871,0,0,1,1.154-.34,11.13,11.13,0,0,1,1.459-.161,9.21,9.21,0,0,1,1.547.053,10.654,10.654,0,0,1,1.462.27" transform="translate(-293.732 -116.192)"/>
    <path id="Path_12" data-name="Path 12" fill="#ffffff" d="M441.149,167.783l14.443-1.764q0-4.937-2.324-7.44t-6.787-2.5a11.015,11.015,0,0,0-3.979.683,8.516,8.516,0,0,0-3.062,1.981,8.688,8.688,0,0,0-1.963,3.188,12.572,12.572,0,0,0-.683,4.3,12,12,0,0,0,.756,4.413,8.777,8.777,0,0,0,2.122,3.223A8.992,8.992,0,0,0,443,175.83a13.613,13.613,0,0,0,4.378.665,19.118,19.118,0,0,0,4.43-.451,17.316,17.316,0,0,0,2.991-.955l-1.073-2.624a14.739,14.739,0,0,1-2.432.756,15.408,15.408,0,0,1-3.513.36,6.889,6.889,0,0,1-4.609-1.439,6.376,6.376,0,0,1-2.016-4.357m-.287-2.089a9.876,9.876,0,0,1,.378-3.135,6.353,6.353,0,0,1,1.139-2.22,4.636,4.636,0,0,1,1.749-1.313,5.425,5.425,0,0,1,2.162-.433,4.792,4.792,0,0,1,3.6,1.371,6.146,6.146,0,0,1,1.331,4.408Z" transform="translate(-326.712 -116.286)"/>
    <path id="Path_13" data-name="Path 13" fill="#ffffff" d="M545.5,150.685l-9.645-11.018,8.521-8.269h-4.8l-7.982,8.269h-.071V122.33H527.04v28.355h4.478V140.1h.071l8.6,10.582Z" transform="translate(-394.216 -91.045)"/>
  </g>
</svg>
