<svg width="384" height="384" viewBox="0 0 384 384" fill="none" xmlns="http://www.w3.org/2000/svg">
<path d="M185.346 71L124.538 89L61.9423 57.5L53 53V287L128.115 327.5L174.615 309.5L221.115 332L317.692 309.5L332 75.5L235.423 98L185.346 71Z" fill="white" stroke="black" stroke-opacity="0.1"/>
<path d="M126.237 87.875L53 53V288.406L129.725 327.641L175.062 310.203L220.4 332L318.05 310.203L332 74.7969L234.35 96.5938L185.525 70.4375L126.237 87.875Z" stroke="black" stroke-width="4"/>
<path d="M126.002 97L126.958 308.02L126.998 317" stroke="#6750A4" stroke-opacity="0.16" stroke-width="3" stroke-linecap="round"/>
<path d="M183.001 79.9618L175.088 295.036L174.935 299.816" stroke="#6750A4" stroke-opacity="0.16" stroke-width="3" stroke-linecap="round"/>
<path d="M223 323.872L233.344 108.683L233.5 104.102" stroke="#6750A4" stroke-opacity="0.16" stroke-width="3" stroke-linecap="round"/>
<circle cx="241.5" cy="75.5" r="27.5" stroke="black" stroke-width="22"/>
<path d="M220.693 167.999L213.519 101.341L256.29 111.187L220.693 167.999Z" fill="black"/>
</svg>
